<svg width="361" height="686" viewBox="0 0 361 686" fill="none" xmlns="http://www.w3.org/2000/svg">
<path d="M340.838 567.423C323.076 567.423 311.075 564.063 304.834 558.302C298.593 552.541 295.713 539.58 295.713 520.858V416.686V154.097C295.713 101.771 284.192 62.887 261.629 37.9242C239.067 12.9614 203.543 0 156.017 0C106.572 0 68.1676 13.9215 40.8045 41.2846C13.4415 68.6476 0 108.012 0 157.938V416.206H120.973V319.715H155.537V212.664H120.973V161.778C120.973 133.455 130.574 119.533 149.297 119.533C158.898 119.533 165.618 122.414 169.459 128.654C173.299 134.895 175.219 145.936 175.219 161.778V278.911V539.58C175.219 585.185 187.701 620.709 212.184 646.632C236.666 672.555 271.23 685.036 314.915 685.036H347.079V567.423H340.838Z" fill="#2E2E2E"/>
<path d="M309.154 529.979L345.158 516.057C346.598 515.577 347.559 515.097 348.039 514.137C348.519 513.657 348.999 513.177 348.999 512.217H349.959C349.959 513.657 349.959 515.097 349.959 516.537C349.959 518.457 349.959 519.897 349.959 521.818C349.959 523.738 349.959 525.178 349.959 527.098C349.959 528.538 349.959 529.979 349.959 530.939H348.999C348.999 529.019 348.519 527.578 348.039 527.098C347.559 526.618 346.118 526.618 344.198 527.578L318.275 537.179L316.355 536.219L337.957 544.86C340.358 545.82 342.278 546.3 343.718 546.3C345.158 546.3 346.118 546.3 347.079 545.82C348.039 545.34 348.519 544.86 348.519 543.9C348.999 542.94 348.999 541.98 348.999 541.02H349.959C349.959 542.46 349.959 543.42 349.959 544.86C349.959 545.82 349.959 547.261 349.959 548.701C349.959 549.661 349.959 550.141 349.959 551.101C349.959 552.061 349.959 552.541 349.959 553.021H348.999C348.999 552.061 348.519 551.101 347.559 550.621C346.598 549.661 345.158 548.701 342.758 548.221L309.634 535.259C309.634 534.299 309.634 533.819 309.634 532.859C309.154 531.899 309.154 530.939 309.154 529.979ZM333.637 527.098H334.597V544.38L333.637 543.9V527.098Z" fill="#2E2E2E"/>
<path d="M319.235 489.654C319.235 487.734 319.235 486.774 319.716 485.814C320.196 484.854 320.676 483.894 321.156 483.413C322.116 482.933 322.596 482.453 324.036 481.973C324.996 481.493 326.916 481.493 328.837 481.493H344.198C345.638 481.493 347.079 481.013 347.559 480.533C348.039 480.053 348.519 479.093 348.519 477.653H349.959C349.959 478.613 349.959 479.573 349.959 481.013C349.959 482.453 349.959 483.894 349.959 485.334C349.959 486.774 349.959 488.214 349.959 489.654C349.959 491.094 349.959 492.054 349.959 493.015H348.519C348.519 492.054 348.039 491.094 347.559 490.614C347.079 490.134 346.118 490.134 344.198 490.134H326.436C325.476 490.134 324.996 490.134 324.036 490.614C323.556 490.614 323.076 491.094 322.596 491.574C322.116 492.054 322.116 492.534 322.116 493.495C322.116 494.455 322.116 495.415 322.596 495.895C323.076 496.855 323.556 497.335 324.516 497.815C325.476 498.295 326.436 498.295 327.396 498.295H344.678C346.118 498.295 347.559 498.295 348.039 497.815C348.519 497.335 348.999 496.855 348.999 495.415H350.439C350.439 496.375 350.439 497.335 350.439 498.775C350.439 500.215 350.439 501.656 350.439 503.096C350.439 504.536 350.439 506.456 350.439 507.896C350.439 509.336 350.439 510.777 350.439 511.257H348.999C348.999 509.816 348.519 508.856 348.039 508.376C347.559 507.896 346.599 507.416 344.678 507.416H326.436C324.516 507.416 323.556 507.896 322.596 508.376C321.636 508.856 321.156 509.816 321.156 511.257H319.716C319.716 509.816 319.716 508.856 319.716 507.896C319.716 505.976 319.716 504.536 319.716 503.096C319.716 501.656 319.235 500.215 319.235 498.775H324.036C322.116 497.815 321.156 496.375 320.196 494.935C319.716 493.495 319.235 491.574 319.235 489.654Z" fill="#2E2E2E"/>
<path d="M319.235 462.291C319.235 460.371 319.235 458.931 320.195 457.971C320.675 456.531 321.636 455.57 322.596 455.09L323.076 455.57C322.596 456.05 322.116 456.531 321.636 457.491C321.156 457.971 321.156 458.931 321.156 459.891C321.156 461.811 322.116 463.251 324.516 464.211C326.916 465.171 330.277 465.652 335.077 465.652C338.437 465.652 340.838 465.652 342.758 465.171C344.678 464.691 346.118 464.211 346.598 463.731C347.558 463.251 347.558 462.291 347.558 461.331C347.558 460.371 347.078 458.931 346.118 457.971C345.158 457.011 344.198 456.53 342.278 456.53H344.678C346.598 457.011 347.558 457.971 348.519 459.411C349.479 460.851 349.959 462.291 349.959 464.211C349.959 466.612 349.479 468.532 348.519 470.452C347.558 472.372 345.638 473.812 343.238 474.773C340.838 475.733 337.957 476.213 334.117 476.213C330.757 476.213 327.876 475.733 325.476 474.773C323.076 473.812 321.636 472.372 320.195 470.452C319.715 467.092 319.235 465.171 319.235 462.291ZM304.834 446.929H343.718C345.638 446.929 346.598 446.449 347.558 445.969C348.519 445.489 348.999 444.529 348.999 443.089H350.439C350.439 444.049 350.439 445.489 350.439 446.449C350.439 448.37 350.439 449.81 350.439 451.25C350.439 452.69 350.919 454.13 350.919 455.57H312.035C310.114 455.57 309.154 456.05 308.194 456.53C307.234 457.011 306.754 457.971 306.754 459.411H305.314C305.314 457.971 305.314 457.011 305.314 456.05C305.314 454.13 305.314 452.69 305.314 451.25C305.314 449.81 305.314 448.37 304.834 446.929Z" fill="#2E2E2E"/>
<path d="M319.235 421.007C319.235 419.566 319.716 418.606 320.196 418.126C320.676 417.166 321.636 416.686 322.116 416.686C323.076 416.206 324.036 416.206 324.516 416.206C325.956 416.206 327.396 416.686 328.356 417.646C329.317 418.606 329.797 419.566 329.797 421.007C329.797 422.447 329.317 423.887 328.837 424.367C328.356 425.327 327.396 425.807 325.956 425.807C324.516 425.807 323.556 425.327 323.076 424.847C322.116 424.367 321.636 423.887 321.156 422.927C321.156 423.407 321.156 423.887 321.156 424.367C321.156 424.847 321.636 425.327 322.116 426.287C322.596 426.767 323.076 427.247 323.556 427.727C324.036 428.207 324.516 428.207 325.476 428.687C325.956 428.687 326.916 429.167 327.396 429.167H343.718C345.638 429.167 346.599 428.687 347.559 427.727C348.039 426.767 348.519 425.807 348.519 423.887H349.959C349.959 424.847 349.959 426.287 349.959 427.727C349.959 429.647 349.959 431.088 349.959 433.008C349.959 434.448 349.959 436.368 349.959 437.808C349.959 439.249 349.959 440.689 349.959 441.649H348.519C348.519 440.209 348.039 439.249 347.559 438.769C347.079 438.288 346.118 437.808 344.198 437.808H326.436C324.516 437.808 323.556 438.288 322.596 438.769C321.636 439.249 321.156 440.209 321.156 441.649H319.716C319.716 440.209 319.716 439.249 319.716 438.288C319.716 436.368 319.716 434.928 319.716 433.488C319.716 432.048 319.235 430.608 319.235 429.167H324.036C323.076 428.687 322.116 428.207 321.636 427.247C320.676 426.287 320.196 425.807 319.716 424.847C319.235 423.887 319.235 421.967 319.235 421.007Z" fill="#2E2E2E"/>
<path d="M319.235 399.404C319.235 396.044 320.196 393.163 322.116 391.243C324.036 389.323 327.396 388.363 332.197 388.363V407.085H331.237V396.524C329.317 396.524 327.396 396.524 325.956 396.524C324.516 396.524 323.076 397.004 322.116 397.484C321.156 397.964 320.676 398.924 320.676 399.404C320.676 400.364 321.636 401.324 323.076 402.284C324.516 403.245 327.396 403.725 331.717 403.725H332.197C332.677 403.725 333.157 403.725 333.637 403.725C334.117 403.725 334.597 403.725 335.077 403.725C337.958 403.725 339.878 403.245 341.318 402.765C342.758 402.284 344.198 401.324 344.678 399.884C345.158 398.924 345.638 397.484 345.638 396.524C345.638 396.044 345.638 395.084 345.158 394.124C344.678 393.163 344.678 392.683 343.718 391.723C343.238 390.763 342.278 389.803 340.838 389.323L341.318 388.363C342.758 388.843 344.198 389.323 345.638 390.283C347.079 391.243 348.039 392.683 348.999 394.124C349.959 395.564 350.439 397.484 350.439 399.884C350.439 402.284 349.959 404.685 348.999 406.605C348.039 408.525 346.118 409.965 344.198 411.405C341.798 412.366 338.918 413.326 335.077 413.326C331.237 413.326 328.356 412.846 325.956 411.405C323.556 409.965 321.636 408.525 320.676 406.125C319.716 404.685 319.235 402.284 319.235 399.404Z" fill="#2E2E2E"/>
<path d="M350.439 377.802C350.439 379.722 349.959 381.162 349.479 382.122C348.998 383.082 348.038 384.042 346.598 384.522C345.638 385.003 344.198 385.483 343.238 385.483C341.798 385.483 340.357 385.003 339.397 384.522C338.437 384.042 337.477 382.602 336.997 381.642C336.517 380.682 336.037 379.242 335.557 377.802C335.077 376.362 334.597 375.401 334.117 373.961C333.637 372.521 333.157 372.041 332.677 371.081C332.197 370.121 331.237 370.121 330.276 370.121H325.476C324.516 370.121 324.036 370.121 323.076 370.601C322.115 371.081 321.635 371.081 321.155 372.041C320.675 372.521 320.675 373.481 320.675 374.441C320.675 374.921 320.675 375.882 321.155 376.362C321.635 376.842 321.635 377.802 322.115 378.282C322.596 376.842 323.076 376.362 324.036 375.401C324.996 374.921 325.956 374.441 326.916 374.441C328.356 374.441 329.316 374.921 330.276 375.882C331.237 376.842 331.717 377.802 331.717 379.242C331.717 380.682 331.237 381.642 330.276 382.602C328.836 383.562 327.396 384.042 326.436 384.042C325.476 384.042 324.516 383.562 323.556 383.082C322.596 382.602 322.115 381.642 321.635 380.682C321.155 379.722 320.675 378.282 320.195 376.842C319.715 375.401 319.715 373.481 319.715 372.041C319.715 370.121 319.715 368.681 320.195 367.241C320.675 365.8 321.155 364.36 322.596 363.4C323.556 362.44 324.516 361.96 325.956 361.96C327.396 361.96 328.836 361.48 330.756 361.48H345.638C346.598 361.48 347.078 361.48 347.558 361C348.038 360.52 348.038 360.52 348.038 360.04C348.038 359.56 348.038 359.56 347.558 359.08C347.558 358.6 347.078 358.6 347.078 358.12L348.038 357.64C348.518 358.6 349.479 359.56 349.479 360.52C349.959 361.48 349.959 362.92 349.959 364.36C349.959 365.8 349.959 367.241 349.479 368.201C348.998 369.161 348.518 369.641 348.038 370.121C347.558 370.601 346.598 369.641 345.638 369.641C347.078 370.601 348.038 371.561 348.998 373.001C349.959 374.441 350.439 375.882 350.439 377.802ZM346.118 373.001C346.118 372.521 346.118 372.041 345.638 371.561C345.158 371.081 345.158 370.601 344.198 370.121H332.197C332.677 370.601 333.157 371.081 333.637 371.561C334.117 372.041 334.597 372.521 335.077 373.001C335.557 373.481 336.037 373.961 336.517 374.441C336.997 374.921 337.957 375.401 338.437 375.882C339.397 376.362 340.358 376.362 341.318 376.362C342.758 376.362 343.718 375.882 344.678 375.401C346.118 374.921 346.118 373.961 346.118 373.001Z" fill="#2E2E2E"/>
<path d="M319.236 343.718C319.236 341.798 319.236 340.358 319.716 339.397C320.196 338.437 320.676 337.477 320.676 336.517C321.636 335.077 321.156 334.597 319.236 334.117V332.677C320.196 332.677 321.636 332.677 323.076 332.677C324.516 332.677 326.916 332.677 329.317 332.677V334.117C327.877 334.117 326.436 334.597 324.996 335.077C323.556 335.557 322.596 336.517 321.636 337.477C320.676 338.437 320.196 339.878 320.196 341.318C320.196 342.278 320.676 343.238 321.156 343.718C321.636 344.198 322.596 344.678 323.556 344.678C324.516 344.678 325.956 344.198 326.436 343.718C327.397 343.238 328.357 342.278 328.837 340.838C329.797 339.878 330.277 338.437 331.237 337.477C332.197 336.037 333.157 335.077 334.117 334.117C335.077 333.157 336.037 332.197 336.998 331.717C337.958 331.237 339.398 330.757 340.838 330.757C342.758 330.757 344.198 331.237 345.159 332.197C346.599 333.157 347.559 334.597 348.039 336.517C348.999 338.437 348.999 339.878 348.999 342.278C348.999 343.718 348.999 344.678 348.519 345.638C348.039 346.598 348.039 347.558 347.559 348.038C347.079 348.518 347.079 348.999 347.079 349.479C347.079 349.959 346.599 350.439 346.599 350.919C346.599 351.399 346.599 351.399 347.079 351.879C347.559 352.359 348.039 352.359 348.519 352.359V353.799C347.079 353.799 345.639 353.799 344.198 353.799C342.758 353.799 339.878 353.799 336.998 353.799V352.359C338.918 352.359 340.838 351.879 342.278 350.919C343.718 349.959 345.158 349.479 346.119 348.518C347.079 347.558 347.559 346.118 347.559 344.678C347.559 344.198 347.559 343.238 347.079 342.758C346.599 342.278 346.599 341.798 346.119 341.318C345.639 340.838 344.678 340.838 344.198 340.838C342.278 340.838 341.318 341.318 339.878 342.278C338.918 343.238 337.478 344.678 336.037 346.118C335.077 347.558 334.117 348.519 333.157 349.479C332.197 350.439 331.237 351.399 329.797 351.879C328.837 352.359 327.397 352.839 325.956 352.839C324.036 352.839 322.596 352.359 321.636 351.399C320.676 350.439 319.716 348.999 318.756 347.558C317.795 346.118 319.236 345.638 319.236 343.718Z" fill="#2E2E2E"/>
<path d="M309.154 295.713H310.114C310.114 297.153 310.114 298.113 310.594 298.593C311.074 299.073 311.075 299.553 312.035 300.033C312.515 300.033 313.955 300.513 315.395 300.513H344.678C345.638 300.513 346.598 300.513 347.079 300.033C347.559 300.033 348.039 299.553 348.039 299.073C348.039 298.593 348.519 298.113 348.519 297.153V294.753C348.519 293.792 348.039 292.352 347.559 291.392C347.079 290.432 346.118 288.992 344.678 288.032C343.238 287.072 341.798 286.112 340.358 285.632C338.918 284.671 336.997 284.191 335.077 284.191V282.751C336.517 282.751 337.957 282.751 340.358 282.751C341.318 282.751 342.758 282.751 344.678 282.751C346.598 282.751 348.519 282.751 350.439 282.271C350.439 284.191 350.439 286.592 350.439 288.992C350.439 291.392 350.439 293.792 350.439 295.713C350.439 296.673 350.439 298.113 350.439 299.553C350.439 300.993 350.439 302.913 350.439 304.354C350.439 306.274 350.439 308.194 350.439 309.634C350.439 311.074 350.439 312.995 350.439 314.915H349.479C349.479 313.955 349.479 312.995 348.999 312.034C348.999 311.554 348.519 311.074 347.559 310.594C347.079 310.594 345.638 310.114 344.678 310.114H315.875C314.435 310.114 313.475 310.114 312.515 310.594C312.035 310.594 311.555 311.074 311.075 312.034C310.594 312.515 310.594 313.475 310.594 314.915H309.634C309.634 313.955 309.634 312.514 309.634 310.594C309.634 308.674 309.634 307.234 309.634 304.834C309.634 302.913 309.634 301.473 309.634 299.553C309.634 297.633 309.154 296.673 309.154 295.713Z" fill="#2E2E2E"/>
<path d="M319.235 264.509C319.235 261.629 319.716 259.229 320.676 256.828C321.636 254.428 323.556 252.988 325.476 251.548C327.876 250.108 330.757 249.628 334.597 249.628C338.438 249.628 341.318 250.108 343.718 251.548C346.118 252.988 347.559 254.428 348.519 256.828C349.479 259.229 349.959 261.629 349.959 264.509C349.959 267.389 349.479 269.79 348.519 272.19C347.559 274.59 345.638 276.03 343.718 277.471C341.318 278.911 338.438 279.391 334.597 279.391C330.757 279.391 327.876 278.911 325.476 277.471C323.076 276.03 321.636 274.59 320.676 272.19C319.716 269.79 319.235 267.389 319.235 264.509ZM320.676 264.509C320.676 265.949 321.636 266.909 324.036 267.87C326.436 268.83 329.797 269.31 335.077 269.31C340.358 269.31 343.718 268.83 346.118 267.87C348.519 266.909 349.479 265.949 349.479 264.509C349.479 263.069 348.519 262.109 346.118 261.149C343.718 260.189 340.358 259.709 335.077 259.709C329.797 259.709 326.436 260.189 324.036 261.149C321.636 262.109 320.676 263.069 320.676 264.509Z" fill="#2E2E2E"/>
<path d="M319.716 234.266H354.759C356.68 234.266 357.64 233.786 358.6 232.826C359.08 231.866 359.56 230.905 359.56 228.985H361C361 229.945 361 231.385 361 233.306C361 235.226 361 237.146 361 239.066C361 240.507 361 241.947 361 243.387C361 244.827 361 245.787 361 246.747H359.56C359.56 245.307 359.08 244.827 358.6 244.347C358.12 243.867 357.16 243.387 355.239 243.387H326.436C324.516 243.387 323.556 243.867 322.596 244.347C321.636 244.827 321.636 245.787 321.636 247.227H320.196C320.196 245.787 320.196 244.827 320.196 243.867C320.196 241.947 320.196 240.507 320.196 239.066C320.196 237.146 319.716 235.706 319.716 234.266ZM319.235 225.625C319.235 223.705 319.716 221.784 320.676 220.344C321.636 218.904 323.556 217.464 325.476 216.504C327.396 215.544 330.277 215.064 333.637 215.064C336.517 215.064 339.398 215.544 341.318 216.024C343.238 216.504 345.158 217.464 346.598 218.904C348.039 220.344 348.999 221.304 349.479 223.225C349.959 224.665 350.439 226.585 350.439 228.505C350.439 229.945 350.439 231.386 349.959 232.346C349.479 233.306 348.999 234.746 348.039 235.226L347.079 234.746C347.559 234.266 348.039 233.786 348.519 233.306C348.999 232.826 348.999 231.866 348.999 231.386C348.999 229.945 348.519 228.505 347.559 227.545C346.599 226.585 344.678 226.105 342.758 225.625C340.838 225.145 337.958 225.145 335.077 225.145C331.717 225.145 329.317 225.145 327.396 225.625C325.476 226.105 324.036 226.585 323.556 227.065C322.596 227.545 322.596 228.505 322.596 229.465C322.596 230.905 323.076 231.866 324.036 232.826C324.996 233.786 326.436 234.266 327.876 234.266H325.476C323.556 233.306 322.116 232.346 321.156 230.905C320.196 229.465 319.235 227.545 319.235 225.625Z" fill="#2E2E2E"/>
<path d="M319.235 196.822C319.235 193.461 320.196 190.581 322.116 188.661C324.036 186.741 327.396 185.78 332.197 185.78V204.503H331.237V193.941C329.317 193.941 327.396 193.941 325.956 193.941C324.516 193.941 323.076 194.421 322.116 194.901C321.156 195.382 320.676 195.862 320.676 196.822C320.676 197.782 321.636 198.742 323.076 199.702C324.516 200.662 327.396 201.142 331.717 201.142H332.197C332.677 201.142 333.157 201.142 333.637 201.142C334.117 201.142 334.597 201.142 335.077 201.142C337.958 201.142 339.878 200.662 341.318 200.182C342.758 199.702 344.198 198.742 344.678 197.302C345.158 195.862 345.638 194.901 345.638 193.941C345.638 193.461 345.638 192.501 345.158 191.541C344.678 190.581 344.678 190.101 343.718 189.141C343.238 188.181 342.278 187.221 340.838 186.741L341.318 185.78C342.758 186.261 344.198 186.741 345.638 188.181C347.079 189.141 348.039 190.581 348.999 192.021C349.959 193.461 350.439 195.382 350.439 197.782C350.439 200.182 349.959 202.582 348.999 204.503C348.039 206.423 346.118 207.863 344.198 209.303C341.798 210.263 338.918 211.223 335.077 211.223C331.237 211.223 328.356 210.743 325.956 209.303C323.556 207.863 321.636 206.423 320.676 204.022C319.716 202.102 319.235 199.702 319.235 196.822Z" fill="#2E2E2E"/>
<path d="M319.715 158.897L348.998 172.339V170.419C348.998 168.979 348.518 167.538 348.038 166.098C347.558 164.658 346.118 163.698 344.678 162.738C343.238 161.778 340.838 161.298 338.437 160.818V159.858C341.318 159.858 343.718 159.858 345.638 159.858C347.558 159.858 348.998 159.858 350.439 159.858C350.439 161.778 350.439 163.218 350.439 165.138C350.439 167.058 350.439 168.979 350.439 170.899C350.439 172.819 350.439 174.739 350.439 177.139C350.439 179.06 350.439 181.46 350.439 183.38L321.155 169.939V172.339C321.155 173.779 321.635 175.219 322.115 176.659C322.596 178.1 324.036 179.06 325.476 180.02C326.916 180.98 329.316 181.46 331.717 181.94V183.38C328.836 183.38 326.436 183.38 324.516 183.38C322.596 183.38 321.155 183.38 319.715 183.38C319.715 181.46 319.715 179.54 319.715 177.62C319.715 175.699 319.715 173.779 319.715 171.859C319.715 169.939 319.715 167.538 319.715 165.618C320.195 162.738 320.195 160.338 319.715 158.897Z" fill="#2E2E2E"/>
</svg>
