<svg width="33" height="70" viewBox="0 0 33 70" fill="none" xmlns="http://www.w3.org/2000/svg">
<path d="M32.4111 57.7318C30.713 57.7318 29.5717 57.4144 28.9965 56.7797C28.4214 56.145 28.1338 54.8657 28.1338 52.9469V42.3565V15.6536C28.1338 10.3251 27.0488 6.38319 24.879 3.82796C22.7091 1.27274 19.3584 -0.00324885 14.8269 6.21195e-06C10.1159 6.21195e-06 6.47005 1.40782 3.88933 4.22345C1.30862 7.03908 0.0121732 10.9907 0 16.0784V42.3565H11.49V32.5181H14.7996V21.6201H11.49V16.469C11.49 13.6045 12.3862 12.1723 14.1787 12.1723C15.0917 12.1723 15.7445 12.4848 16.1006 13.1098C16.4566 13.7347 16.6392 14.8577 16.6392 16.469V28.3923V54.9146C16.6392 59.5595 17.8094 63.1889 20.1497 65.8027C22.49 68.4166 25.7539 69.7186 29.9415 69.7088H33V57.7318H32.4111Z" fill="#2E2E2E"/>
</svg>
